<?xml version="1.0" standalone="no"?><!DOCTYPE svg PUBLIC "-//W3C//DTD SVG 1.1//EN" "http://www.w3.org/Graphics/SVG/1.1/DTD/svg11.dtd"><svg t="1759339739662" class="icon" viewBox="0 0 1024 1024" version="1.1" xmlns="http://www.w3.org/2000/svg" p-id="70354" xmlns:xlink="http://www.w3.org/1999/xlink" width="200" height="200"><path d="M788.199 657.022C837.661 594.96 865 518.203 865 437.106 865 242.087 706.953 84 512 84S159 242.087 159 437.106c0 81.097 27.339 157.854 76.801 219.916l0.526 0.66 268.357 281.66 4.493 4.32c0.926 0.89 2.014 1.338 3.325 1.338 1.54 0 2.854-0.654 3.812-1.876l1.772-2.258 269.6-283.2 0.513-0.644zM563.522 980.157c-11.865 15.126-30.308 24.843-51.02 24.843-17.437 0-33.266-6.888-44.916-18.092h-0.455L188.638 694.61l0.242-0.193-39.815-60C117.14 575.788 99 508.566 99 437.106 99 208.954 283.906 24 512 24s413 184.954 413 413.106c0 71.46-18.14 138.682-50.065 197.311l-39.815 60 0.239 0.19-271.837 285.55z" fill="#2F54EB" p-id="70355"></path><path d="M513.5 517c73.213 0 132.5-59.133 132.5-132 0-72.867-59.287-132-132.5-132S381 312.133 381 385c0 72.867 59.287 132 132.5 132z m0 60C407.185 577 321 491.039 321 385s86.185-192 192.5-192S706 278.961 706 385s-86.185 192-192.5 192z" fill="#85A5FF" p-id="70356"></path></svg>